<svg width="800" height="300" viewBox="0 0 800 300" fill="none" xmlns="http://www.w3.org/2000/svg">
  <rect width="800" height="300" rx="8" fill="#FFFFFF"/>
  
  <!-- Background -->
  <rect x="50" y="50" width="700" height="200" rx="8" fill="#F9FAFB" stroke="#E5E7EB" stroke-width="2"/>
  
  <!-- Content Modules -->
  <rect x="80" y="80" width="200" height="140" rx="6" fill="#FFFFFF" stroke="#000000" stroke-width="2"/>
  <text x="180" y="110" text-anchor="middle" font-family="Inter, sans-serif" font-size="14" font-weight="600" fill="#111827">潮汕时光</text>
  <text x="180" y="130" text-anchor="middle" font-family="Inter, sans-serif" font-size="12" fill="#4B5563">数字博物馆</text>
  
  <rect x="300" y="80" width="200" height="140" rx="6" fill="#FFFFFF" stroke="#000000" stroke-width="2"/>
  <text x="400" y="110" text-anchor="middle" font-family="Inter, sans-serif" font-size="14" font-weight="600" fill="#111827">潮学堂</text>
  <text x="400" y="130" text-anchor="middle" font-family="Inter, sans-serif" font-size="12" fill="#4B5563">文化学习区</text>
  
  <rect x="520" y="80" width="200" height="140" rx="6" fill="#FFFFFF" stroke="#000000" stroke-width="2"/>
  <text x="620" y="110" text-anchor="middle" font-family="Inter, sans-serif" font-size="14" font-weight="600" fill="#111827">潮汕元宇宙</text>
  <text x="620" y="130" text-anchor="middle" font-family="Inter, sans-serif" font-size="12" fill="#4B5563">数字文化空间</text>
  
  <!-- Content Icons -->
  <circle cx="130" cy="170" r="20" fill="#F3F4F6" stroke="#000000" stroke-width="1.5"/>
  <path d="M125 165L135 175" stroke="#000000" stroke-width="1.5"/>
  <path d="M135 165L125 175" stroke="#000000" stroke-width="1.5"/>
  
  <rect x="340" y="150" width="120" height="40" rx="4" fill="#F3F4F6" stroke="#000000" stroke-width="1.5"/>
  <line x1="360" y1="160" x2="440" y2="160" stroke="#000000" stroke-width="1.5"/>
  <line x1="360" y1="170" x2="420" y2="170" stroke="#000000" stroke-width="1.5"/>
  <line x1="360" y1="180" x2="430" y2="180" stroke="#000000" stroke-width="1.5"/>
  
  <path d="M580 150L620 170L580 190Z" fill="#F3F4F6" stroke="#000000" stroke-width="1.5"/>
  <circle cx="650" cy="170" r="15" fill="#F3F4F6" stroke="#000000" stroke-width="1.5"/>
  
  <!-- Connecting Elements -->
  <line x1="150" y1="225" x2="150" y2="240" stroke="#000000" stroke-width="1.5"/>
  <line x1="400" y1="225" x2="400" y2="240" stroke="#000000" stroke-width="1.5"/>
  <line x1="650" y1="225" x2="650" y2="240" stroke="#000000" stroke-width="1.5"/>
  <line x1="150" y1="240" x2="650" y2="240" stroke="#000000" stroke-width="1.5"/>
  
  <rect x="350" y="240" width="100" height="20" rx="10" fill="#000000"/>
  <text x="400" y="254" text-anchor="middle" font-family="Inter, sans-serif" font-size="10" fill="#FFFFFF">文化内容体系</text>
</svg>
